<?xml version="1.0" encoding="utf-8"?>
<!-- Generator: Adobe Illustrator 26.0.2, SVG Export Plug-In . SVG Version: 6.00 Build 0)  -->
<svg version="1.1" id="Calque_1" xmlns="http://www.w3.org/2000/svg" xmlns:xlink="http://www.w3.org/1999/xlink" x="0px" y="0px"
	 viewBox="0 0 368 369.9" style="enable-background:new 0 0 368 369.9;" xml:space="preserve">
<style type="text/css">
	.st0{opacity:0.63;fill:#FF0000;}
	.st1{opacity:0.6;fill:#FF0000;}
	.st2{fill:#FF0000;}
	.st3{fill:#1E1E1E;}
	.st4{fill:none;}
	.st5{font-family:'BernardMT-Condensed';}
	.st6{font-size:98px;}
</style>
<path class="st0" d="M190.8,370.6c-2,0-3.5-1.6-3.5-3.5V5.7c0-2,1.6-3.5,3.5-3.5c2,0,3.5,1.6,3.5,3.5v361.4
	C194.4,369,192.8,370.6,190.8,370.6z"/>
<path class="st1" d="M345.4,162.4H32c-1.7,0-3.1-1.4-3.1-3.1c0-1.7,1.4-3.1,3.1-3.1h313.4c1.7,0,3.1,1.4,3.1,3.1
	C348.5,161.1,347.1,162.4,345.4,162.4z"/>
<path class="st2" d="M188.7,278.5c-66.2,0-120-53.8-120-120c0-66.2,53.8-120,120-120c66.2,0,120,53.8,120,120
	C308.7,224.6,254.8,278.5,188.7,278.5z M188.7,40.6c-65,0-117.9,52.9-117.9,117.9c0,65,52.9,117.9,117.9,117.9
	c65,0,117.9-52.9,117.9-117.9C306.6,93.5,253.7,40.6,188.7,40.6z"/>
<g>
	<path class="st3" d="M228.9,27.1h56.2c19.8,0,35.9,16.1,35.9,35.9v56.4h6.1V63c0-23.2-18.8-42-42-42h-56.2V27.1z"/>
	<path class="st3" d="M56.1,119.4V63c0-19.8,16.1-35.9,35.9-35.9h56.5V21H91.9c-23.2,0-42,18.8-42,42v56.4H56.1z"/>
	<path class="st3" d="M148.4,292.1H91.9c-19.8,0-35.9-16.1-35.9-35.9v-56.4h-6.1v56.4c0,23.2,18.8,42,42,42h56.5V292.1z"/>
	<path class="st3" d="M321,199.8v56.4c0,19.8-16.1,35.9-35.9,35.9h-56.2v6.1h56.2c23.2,0,42-18.8,42-42v-56.4H321z"/>
</g>
<rect x="99.2" y="110.9" class="st4" width="449.3" height="148"/>
<text transform="matrix(1 0 0 1 99.1827 188.1686)" class="st5 st6">ABAT</text>
</svg>
